<svg width="1200" height="630" xmlns="http://www.w3.org/2000/svg">
  <defs>
    <linearGradient id="bg" x1="0%" y1="0%" x2="100%" y2="100%">
      <stop offset="0%" style="stop-color:#05080f"/>
      <stop offset="100%" style="stop-color:#0a0f1c"/>
    </linearGradient>
  </defs>
  <rect width="1200" height="630" fill="url(#bg)"/>
  <!-- Header -->
  <rect x="0" y="0" width="1200" height="60" fill="#0a0f1c"/>
  <text x="30" y="40" fill="#14b8a6" font-family="Arial" font-size="24" font-weight="bold">Grüner Mars • Roadmap 2026</text>
  <text x="1050" y="40" fill="#64748b" font-family="Arial" font-size="14">🌓</text>
  <!-- Timeline Gantt mock -->
  <rect x="50" y="100" width="1100" height="200" fill="#0a0f1c" rx="10"/>
  <text x="70" y="130" fill="#e2e8f0" font-family="Arial" font-size="16" font-weight="bold">Interactive Timeline (Mermaid Gantt)</text>
  <!-- Bars -->
  <rect x="70" y="160" width="300" height="25" fill="#14b8a6" rx="3"/>
  <text x="80" y="178" fill="#05080f" font-family="Arial" font-size="11">Perchlorate PRB Pilot 2026-29</text>
  <rect x="70" y="195" width="450" height="25" fill="#22d3ee" rx="3"/>
  <text x="80" y="213" fill="#05080f" font-family="Arial" font-size="11">Mycotecture + Aquaponics 2027-32</text>
  <rect x="70" y="230" width="700" height="25" fill="#4ade80" rx="3"/>
  <text x="80" y="248" fill="#05080f" font-family="Arial" font-size="11">3D Fractal Hügelbeete &amp; Hybrid Ecosystem 2029-38</text>
  <!-- Chart mock -->
  <rect x="50" y="330" width="500" height="250" fill="#0a0f1c" rx="10"/>
  <text x="70" y="360" fill="#e2e8f0" font-family="Arial" font-size="14" font-weight="bold">Hybrid Allocation</text>
  <circle cx="200" cy="450" r="90" fill="#4ade80" stroke="#22d3ee" stroke-width="40"/>
  <text x="150" y="460" fill="#fff" font-family="Arial" font-size="18" font-weight="bold">65%</text>
  <text x="320" y="430" fill="#e2e8f0" font-family="Arial" font-size="12">Earth Bio</text>
  <text x="320" y="470" fill="#e2e8f0" font-family="Arial" font-size="12">Space-Ag 35%</text>
  <!-- Side info -->
  <rect x="580" y="330" width="570" height="250" fill="#0a0f1c" rx="10"/>
  <text x="600" y="360" fill="#14b8a6" font-family="Arial" font-size="16" font-weight="bold">Key Highlights</text>
  <text x="600" y="390" fill="#94a3b8" font-family="Arial" font-size="13">• Perchlorate-tolerant PRB microbes</text>
  <text x="600" y="415" fill="#94a3b8" font-family="Arial" font-size="13">• Mycotecture radiation shielding</text>
  <text x="600" y="440" fill="#94a3b8" font-family="Arial" font-size="13">• 3D Fractal Hügelbeete</text>
  <text x="600" y="465" fill="#94a3b8" font-family="Arial" font-size="13">• Closed-loop Aquaponics</text>
  <text x="600" y="490" fill="#94a3b8" font-family="Arial" font-size="13">• DRI Slot 30 Integration</text>
  <text x="600" y="520" fill="#d4af37" font-family="Arial" font-size="12">#GrünerMars • Live at rosary-mom.github.io/gruener-mars</text>
</svg>